<?xml version="1.0" encoding="utf-8"?>
<!-- Generator: Adobe Illustrator 27.3.1, SVG Export Plug-In . SVG Version: 6.00 Build 0)  -->
<svg version="1.1" id="Ebene_1" xmlns="http://www.w3.org/2000/svg" xmlns:xlink="http://www.w3.org/1999/xlink" x="0px" y="0px"
	 viewBox="0 0 70 70" style="enable-background:new 0 0 70 70;" xml:space="preserve">
<style type="text/css">
	.st0{fill:#BC823C;}
	.st1{fill:#FFFFFF;}
</style>
<rect class="st0" width="70" height="70"/>
<path class="st1" d="M36.5,34.5c-0.4,0.4-0.9,0.6-1.5,0.6c-0.6,0-1.1-0.2-1.5-0.6l-19-16.8c0.7-0.5,1.6-0.8,2.5-0.8h35.8
	c0.9,0,1.8,0.3,2.5,0.8L36.5,34.5z"/>
<path class="st1" d="M57,21.7v24c0,1.8-0.7,3.5-1.9,4.7c-1.2,1.3-2.9,2-4.7,2H19.6c-1.8,0-3.4-0.7-4.7-2c-1.2-1.3-1.9-3-1.9-4.7v-24
	l19.1,17.7c0.8,0.7,1.8,1.1,2.9,1.1c1.1,0,2.1-0.4,2.9-1.1L57,21.7z"/>
</svg>
